<svg width="28" height="27" viewBox="0 0 28 27" fill="none" xmlns="http://www.w3.org/2000/svg">
<path d="M5.33124 11.07C5.37649 10.5062 5.63246 9.98004 6.04817 9.59644C6.46389 9.21283 7.00883 8.99988 7.57449 9H21.1397C21.7054 8.99988 22.2503 9.21283 22.6661 9.59644C23.0818 9.98004 23.3377 10.5062 23.383 11.07L24.2864 22.32C24.3112 22.6296 24.2717 22.941 24.1703 23.2345C24.0689 23.5281 23.9078 23.7975 23.6972 24.0258C23.4866 24.254 23.231 24.4362 22.9465 24.5609C22.662 24.6855 22.3548 24.7499 22.0442 24.75H6.66999C6.3594 24.7499 6.0522 24.6855 5.76772 24.5609C5.48324 24.4362 5.22764 24.254 5.01702 24.0258C4.80641 23.7975 4.64533 23.5281 4.54393 23.2345C4.44254 22.941 4.40302 22.6296 4.42787 22.32L5.33124 11.07V11.07Z" stroke="#1B1B1B" stroke-width="2" stroke-linecap="round" stroke-linejoin="round"/>
<path d="M18.8572 12.375V6.75C18.8572 5.55653 18.3831 4.41193 17.5392 3.56802C16.6952 2.72411 15.5507 2.25 14.3572 2.25C13.1637 2.25 12.0191 2.72411 11.1752 3.56802C10.3313 4.41193 9.85718 5.55653 9.85718 6.75V12.375" stroke="#1B1B1B" stroke-width="2" stroke-linecap="round" stroke-linejoin="round"/>
</svg>
