<svg width="119" height="97" viewBox="0 0 119 97" fill="none" xmlns="http://www.w3.org/2000/svg">
<path d="M65.9362 58.4556L63.8 57.5147L63.8705 57.3555C65.394 53.917 65.5813 50.0358 64.3958 46.4671L63.9092 44.9987L65.4578 44.9371L65.5041 46.0957L66.3298 45.2716L66.4349 45.7942L66.613 45.7354C67.9805 49.8523 67.7644 54.3297 66.0068 58.2964L65.9362 58.4556Z" fill="black"/>
<path d="M66.6737 74.6061C66.4751 74.6064 66.2797 74.556 66.106 74.4598C65.9324 74.3636 65.7862 74.2247 65.6813 74.0564L62.9384 69.6568C62.7748 69.3944 62.7224 69.078 62.7926 68.777C62.8629 68.4761 63.05 68.2153 63.313 68.0521C63.5759 67.8888 63.893 67.8365 64.1945 67.9066C64.4961 67.9767 64.7574 68.1635 64.921 68.4258L67.6639 72.8254C67.7739 73.0018 67.8346 73.2042 67.8398 73.4119C67.845 73.6195 67.7945 73.8247 67.6936 74.0064C67.5926 74.188 67.4448 74.3393 67.2655 74.4448C67.0862 74.5502 66.8819 74.6059 66.6737 74.6061H66.6737Z" fill="black"/>
<path d="M65.0379 37.2819C64.8448 37.2817 64.6547 37.2337 64.4847 37.1422C64.3148 37.0508 64.1702 36.9187 64.0639 36.7578C63.9576 36.5969 63.893 36.4122 63.8758 36.2202C63.8585 36.0283 63.8892 35.8351 63.9652 35.6579L64.5562 34.3542L67.5303 30.2655C67.7122 30.0154 67.9862 29.8477 68.292 29.7992C68.5978 29.7508 68.9104 29.8256 69.161 30.0071C69.4115 30.1886 69.5796 30.4621 69.6281 30.7673C69.6767 31.0724 69.6018 31.3844 69.4199 31.6344L66.5226 35.6174L66.1116 36.5753C66.0216 36.785 65.8719 36.9638 65.681 37.0894C65.4901 37.215 65.2665 37.282 65.0379 37.2819Z" fill="black"/>
<path d="M65.8895 46.2559C68.6491 43.0962 68.3326 38.3137 65.1826 35.5739C62.0326 32.834 57.2419 33.1744 54.4823 36.3341C51.7227 39.4938 52.0392 44.2763 55.1892 47.0161C58.3392 49.7559 63.1299 49.4156 65.8895 46.2559Z" fill="white"/>
<path d="M60.1683 50.0327C60.0028 50.0327 59.8369 50.0281 59.6706 50.019C57.6956 49.9037 55.8179 49.1246 54.3431 47.8087C52.8683 46.4928 51.8832 44.7175 51.5482 42.7718C51.2132 40.826 51.5479 38.8244 52.4979 37.0927C53.4479 35.3609 54.9573 34.0011 56.7803 33.2344C58.6034 32.4677 60.6328 32.3393 62.5383 32.8702C64.4438 33.401 66.1131 34.5598 67.2746 36.158C68.4361 37.7561 69.0214 39.6996 68.9352 41.672C68.8491 43.6443 68.0965 45.5296 66.8 47.0208C65.9774 47.9701 64.9589 48.7307 63.8142 49.2506C62.6696 49.7705 61.4259 50.0372 60.1683 50.0327ZM60.2078 34.8866C58.53 34.8889 56.9205 35.5501 55.7273 36.7272C54.534 37.9043 53.8529 39.5027 53.8311 41.1769C53.8094 42.8511 54.4487 44.4667 55.611 45.6742C56.7732 46.8818 58.365 47.5844 60.0422 47.6302C61.7193 47.676 63.3472 47.0613 64.5739 45.9189C65.8005 44.7765 66.5274 43.1983 66.5974 41.5254C66.6674 39.8525 66.0748 38.2193 64.9479 36.9789C63.8209 35.7385 62.25 34.9905 60.5749 34.8966C60.4522 34.8901 60.3296 34.8866 60.2078 34.8866Z" fill="black"/>
<path d="M59.6029 71.0045C63.7939 71.0045 67.1914 67.614 67.1914 63.4316C67.1914 59.2492 63.7939 55.8587 59.6029 55.8587C55.4119 55.8587 52.0144 59.2492 52.0144 63.4316C52.0144 67.614 55.4119 71.0045 59.6029 71.0045Z" fill="white"/>
<path d="M59.595 72.1707C57.8898 72.1695 56.222 71.6715 54.7964 70.7378C53.3709 69.8041 52.2495 68.4753 51.57 66.9146C50.8905 65.3539 50.6824 63.6291 50.9713 61.952C51.2602 60.2749 52.0336 58.7185 53.1964 57.4739C54.3591 56.2292 55.8608 55.3504 57.517 54.9455C59.1732 54.5405 60.9119 54.6269 62.5195 55.1941C64.1272 55.7613 65.5339 56.7846 66.567 58.1384C67.6002 59.4922 68.2147 61.1176 68.3352 62.815C68.4966 65.1261 67.7329 67.4067 66.2115 69.1564C64.6901 70.9062 62.5353 71.9823 60.2198 72.1487C60.0106 72.1633 59.8017 72.1707 59.595 72.1707ZM59.6056 57.0246C59.4538 57.0246 59.301 57.03 59.1473 57.0408C57.4693 57.1603 55.9055 57.9325 54.7924 59.1912C53.6793 60.4499 53.1059 62.0944 53.1957 63.7707C53.2855 65.4471 54.0312 67.0212 55.2724 68.1543C56.5136 69.2875 58.151 69.889 59.8321 69.8293C61.5133 69.7697 63.1037 69.0538 64.2612 67.8356C65.4186 66.6174 66.0505 64.9944 66.0208 63.3159C65.9911 61.6374 65.3022 60.0377 64.1024 58.861C62.9026 57.6844 61.2878 57.0249 59.6056 57.0246Z" fill="black"/>
<path d="M10.1428 44.1375C10.1428 41.9667 11.8765 40.8971 13.5786 40.8971C15.0602 40.8971 16.5418 41.7465 16.6997 43.6027C16.246 43.7561 15.8524 44.0485 15.575 44.4382C15.2976 44.8279 15.1505 45.2951 15.1548 45.7731C15.1548 47.2203 16.3212 49.0135 19.0951 49.0135C21.9956 49.0135 24.3596 47.8183 24.3596 45.4904C24.3596 40.2054 10.1428 40.677 10.1428 33.0647C10.1428 28.8173 14.5876 26.5526 19.5683 26.5526C23.8551 26.5526 28.016 27.6536 28.016 30.7368C28.016 32.7182 26.3138 33.8509 24.6435 33.8509C23.0353 33.8509 21.5538 32.9384 21.4597 30.9564C21.8816 30.7727 22.2438 30.4752 22.5055 30.0973C22.7673 29.7194 22.9182 29.2761 22.9413 28.8173C22.9413 27.8741 22.2475 26.6157 19.5683 26.6157C16.7313 26.6157 15.1548 27.9993 15.1548 29.7298C15.1548 34.8573 29.3716 34.1023 29.3716 41.9353C29.3716 46.371 24.517 49.0761 19.0951 49.0761C13.8312 49.0761 10.1428 47.189 10.1428 44.1375Z" fill="black"/>
<path d="M48.5102 44.9671C48.5102 48.0186 48.8152 48.8366 51.4289 48.8366V48.868H40.9215V48.8366C42.5215 48.8366 42.6727 47.7984 42.6727 44.9671V37.5004C42.6727 36.2351 42.5178 34.2599 40.7242 34.2599C39.8271 34.2599 38.9306 34.7845 38.0028 35.5871V44.9671C38.0028 47.2637 38.1509 48.8366 39.754 48.8366V48.868H29.2466V48.8366C31.8597 48.8366 32.1653 48.0186 32.1653 44.9671V28.5406C32.1653 26.3411 32.0161 25.5091 29.2466 26.1627V26.0549L38.0028 24L37.9089 35.4848C41.023 32.942 42.9418 32.0313 44.8607 32.0313C47.4087 32.0313 48.5102 33.5074 48.5102 36.7092V44.9671Z" fill="black"/>
<path d="M89.3733 44.4211C89.6745 47.1268 92.8758 47.5669 92.8758 47.5669V47.757L83.7535 49.2587L83.849 45.5343C82.4274 47.7546 80.614 49.2587 78.4085 49.2587C74.5993 49.2587 72.1348 46.0645 72.1348 41.2738C72.1348 35.8436 76.04 31.9469 81.7374 31.9469C82.4605 31.9437 83.1746 32.108 83.8234 32.4269L83.7533 28.4968C83.7209 26.1655 83.593 25.2391 80.6167 25.9414V26.0549L89.3729 24L89.3733 44.4211ZM84.1196 45.3507V35.3929C84.1196 33.7886 83.9936 32.0899 82.0707 32.0899C79.9586 32.0899 79.0442 34.6061 79.0442 41.2125C79.0442 42.3446 79.0755 47.504 81.566 47.504C82.6283 47.504 83.3107 46.571 84.1196 45.3507Z" fill="black"/>
<path d="M110.195 43.1478C108.808 46.4508 105.971 49.2819 101.59 49.2819C97.3027 49.2819 93.4565 46.2617 93.4565 41.0398C93.4565 35.8806 97.0188 32.2004 102.504 32.2004C108.052 32.2004 110.92 34.9687 109.912 38.9638H99.3989C99.6166 43.4086 102.055 45.4121 105.183 45.4121C106.885 45.4121 109.06 44.8142 110.163 43.1155L110.195 43.1478ZM102.505 32.3271C99.7626 32.3271 99.3841 36.4481 99.3841 38.367C99.3841 38.5712 99.3883 38.7703 99.3966 38.9643H104.309C104.838 36.9954 104.949 32.3271 102.504 32.3271H102.505Z" fill="black"/>
<path d="M20.3538 62.5454C20.3538 64.6367 18.8303 66.1377 16.6077 66.1377C15.9531 66.117 15.3104 65.9577 14.7222 65.6703L13.4861 66.1255V58.3128C13.4861 57.4442 13.4264 57.1156 12.3186 57.3739V57.3681L15.8211 56.5568L15.7838 60.9042C16.3383 60.049 17.0459 59.4694 17.9065 59.4694C19.3923 59.4695 20.3538 60.6998 20.3538 62.5454ZM16.6015 65.9876C17.4065 65.9876 17.7549 65.0409 17.7549 62.5552C17.7549 62.1293 17.7432 60.1881 16.7938 60.1881C16.3891 60.1881 16.1291 60.5391 15.821 60.9983V64.7449C15.821 65.3485 15.869 65.9876 16.6018 65.9876H16.6015Z" fill="black"/>
<path d="M25.9105 59.9366H28.0806V59.9482C27.3442 59.9482 26.8809 60.4452 26.2395 61.7355L23.9232 66.3988C23.4244 67.4048 22.7355 68.9198 21.2862 68.9198C21.1076 68.9349 20.9279 68.9121 20.7588 68.853C20.5898 68.7939 20.4351 68.6998 20.305 68.5768C20.1749 68.4539 20.0724 68.3049 20.004 68.1396C19.9357 67.9743 19.9032 67.7965 19.9085 67.6178C19.9123 67.2954 20.0425 66.9872 20.2712 66.7594C20.4998 66.5316 20.8088 66.4021 21.1319 66.3988C21.2757 66.3908 21.4196 66.4138 21.5538 66.4662C21.688 66.5185 21.8094 66.5991 21.9096 66.7023C22.0099 66.8056 22.0868 66.9292 22.135 67.0646C22.1832 67.2001 22.2017 67.3444 22.1892 67.4876C21.7972 67.6178 21.4526 67.8901 21.4526 68.2449C21.4526 68.5645 21.6665 68.6711 21.9159 68.6711C22.4972 68.6711 23.1614 67.9864 23.9085 66.3693L21.3813 61.3449C20.8705 60.3389 20.728 59.9482 19.9084 59.9482V59.9366H24.5783V59.9482C23.4488 59.9482 23.7661 60.6939 24.2102 61.5225L25.4818 63.9181L26.6464 61.7237C27.1921 60.694 27.4206 59.9482 25.9104 59.9482L25.9105 59.9366Z" fill="black"/>
<path d="M49.6776 70.9115V70.9352C48.3968 71.2666 47.0819 71.449 45.759 71.4787C42.7274 71.4787 41.5935 70.3202 40.632 67.7202C40.016 66.0655 39.7451 62.8502 37.6496 62.8502H36.8353V67.1577C36.8353 70.0375 36.8353 71.5636 39.754 71.5636V71.5883H29.2466V71.5174C31.8914 71.5174 31.8914 70.0252 32.1653 67.2092V59.0265C31.8914 56.1143 31.8914 54.7184 29.2466 54.7184V54.6944H38.2662C40.8045 54.6944 46.5474 54.7889 46.5474 58.7605C46.5474 61.9995 41.5195 62.7317 38.5865 62.85V62.8736C43.4173 62.8736 45.0686 64.3865 46.2518 66.8689C47.8539 70.2493 48.4943 71.0296 49.6776 70.9115ZM36.8353 62.85H37.5649C39.95 62.85 40.9966 61.5828 40.9966 58.7605C40.9966 56.5359 40.1933 54.6944 37.5408 54.6944H36.8353V62.85Z" fill="black"/>
<path d="M81.784 69.1863C81.784 71.0646 81.9672 71.5677 83.5353 71.5677V71.5872H77.1141V71.5677C78.1809 71.5677 78.2816 70.9286 78.2816 69.1863V64.6741C78.2816 63.8834 78.1849 62.6488 77.0637 62.6488C76.416 62.7168 75.8135 63.0116 75.3628 63.4807V69.1863C75.3628 70.5996 75.4617 71.5677 76.5303 71.5677V71.5872H70.1091V71.5677C71.6771 71.5677 71.8604 71.0641 71.8604 69.1863V64.1161C71.8604 62.7959 71.771 62.2968 70.1091 62.6889V62.6284L75.4844 61.3673L75.4283 63.4221C77.3027 61.8911 78.4494 61.3301 79.5962 61.3301C81.1239 61.3301 81.7843 62.2144 81.7843 64.1345L81.784 69.1863Z" fill="black"/>
<path d="M96.9434 69.9817C96.121 70.7806 95.0454 71.2686 93.9016 71.3618C92.5216 71.3618 91.876 70.5184 91.8192 69.2525C91.0002 70.5317 89.9554 71.3986 88.6852 71.3986C86.4913 71.3986 85.0718 69.5587 85.0718 66.7993C85.0718 63.6717 87.3209 61.4273 90.6024 61.4273C91.0189 61.4254 91.4303 61.52 91.804 61.7036L91.7632 59.4403C91.7447 58.0974 91.6711 57.5636 89.9568 57.9687V57.95L95.2105 56.7175V69.1167C95.2105 69.8711 95.3948 70.3309 96.0771 70.3309C96.3935 70.3084 96.6928 70.1786 96.9252 69.9631L96.9434 69.9817ZM90.137 70.8147C90.7908 70.8147 91.2111 70.2408 91.7084 69.4896V63.3612C91.7084 62.3737 91.6308 61.3282 90.4475 61.3282C89.1477 61.3282 88.5853 62.8769 88.5853 66.9431C88.5853 67.6398 88.6047 70.8153 90.1373 70.8153L90.137 70.8147Z" fill="black"/>
<path d="M110.385 70.4119C109.528 71.1672 108.467 71.864 107.313 71.864C105.796 71.864 105.18 71.0992 105.209 69.6459C104.382 70.9912 103.327 71.9027 102.045 71.9027C99.8292 71.9027 98.3958 69.9668 98.3958 67.0623C98.3958 63.771 100.667 61.4091 103.981 61.4091C104.961 61.4429 105.922 61.6941 106.792 62.1446L108.636 61.4284V69.5018C108.636 70.2958 108.822 70.7797 109.511 70.7797C109.833 70.7551 110.136 70.6181 110.367 70.3926L110.385 70.4119ZM103.625 70.8949C104.252 70.8949 104.655 70.3264 105.133 69.5821V63.5098C105.133 62.5319 105.058 61.496 103.923 61.496C102.675 61.496 102.135 63.0304 102.135 67.0586C102.135 67.7493 102.154 70.8949 103.625 70.8949H103.625Z" fill="black"/>
</svg>
